<svg width="1091" height="1024" viewBox="0 0 1091 1024" fill="none" xmlns="http://www.w3.org/2000/svg">
    <path d="M655.217 152.267C662.95 154.936 664.382 165.256 657.667 169.929L635.41 185.415C629.285 189.677 620.819 185.972 619.794 178.581L616.419 154.251C615.393 146.86 622.532 140.99 629.585 143.424L655.217 152.267Z" fill="#40B5F7"/>
    <path d="M835.225 441.936L812.969 457.422C808.375 460.619 802.026 457.84 801.257 452.297L797.882 427.967C797.113 422.423 802.466 418.021 807.757 419.846L833.388 428.69C839.188 430.691 840.262 438.431 835.225 441.936Z" stroke="#40B5F7" stroke-width="5"/>
    <path d="M523.239 315.877L500.983 331.363C496.389 334.56 490.039 331.781 489.27 326.237L485.895 301.907C485.126 296.364 490.48 291.962 495.77 293.787L521.402 302.631C527.202 304.632 528.276 312.372 523.239 315.877Z" stroke="#40B5F7" stroke-width="5"/>
    <path d="M458.113 173.166L431.509 178.398C426.017 179.478 421.32 174.381 422.845 168.996L429.536 145.362C431.06 139.977 437.732 138.099 441.842 141.897L461.756 160.299C466.262 164.463 464.134 171.982 458.113 173.166Z" stroke="#40B5F7" stroke-width="5"/>
    <rect x="806.88" y="306.1" width="47.4863" height="43.9342" rx="5.5" transform="rotate(-17.4246 806.88 306.1)" fill="#5CD89C" stroke="#5CD89C" stroke-width="3"/>
    <path d="M540.178 152.363L565.825 148.091C567.732 147.774 569.535 149.062 569.852 150.969L574.124 176.615C574.442 178.522 573.153 180.325 571.247 180.643L545.6 184.915C543.693 185.232 541.89 183.944 541.572 182.037L537.301 156.39C536.983 154.484 538.272 152.681 540.178 152.363Z" stroke="#5CD89C" stroke-width="3"/>
    <rect x="538.109" y="620.557" width="49.4863" height="45.9342" rx="12.5" transform="rotate(6.94221 538.109 620.557)" fill="#5CD89C" stroke="#5CD89C"/>
    <circle cx="635.447" cy="337.153" r="23.5" transform="rotate(33.0256 635.447 337.153)" stroke="#40B5F6" stroke-width="3"/>
    <circle cx="628.586" cy="848.586" r="23.5" transform="rotate(33.0256 628.586 848.586)" stroke="#5CD89C" stroke-width="3"/>
    <rect x="453.863" y="398" width="32.8034" height="77.8032" rx="16.4017" transform="rotate(74.1986 453.863 398)" fill="#DFD46B"/>
    <rect x="453.863" y="398" width="32.8034" height="77.8032" rx="16.4017" transform="rotate(74.1986 453.863 398)" stroke="#DFD46B"/>
    <g clip-path="url(#clip0_21_45)">
    <path d="M706.733 351.887C706.558 351.819 706.399 351.713 706.267 351.576C706.135 351.439 706.031 351.274 705.962 351.089L704.142 346.314C704.069 346.13 704.033 345.931 704.034 345.728C704.036 345.525 704.076 345.321 704.152 345.13C704.227 344.939 704.337 344.763 704.475 344.614C704.613 344.464 704.776 344.344 704.954 344.26L710.032 341.788C710.389 341.615 710.787 341.596 711.139 341.735C711.492 341.875 711.769 342.161 711.911 342.532C712.052 342.903 712.045 343.327 711.893 343.712C711.741 344.097 711.455 344.411 711.098 344.585L707.328 346.499L708.671 349.786C708.812 350.157 708.806 350.582 708.653 350.967C708.501 351.352 708.215 351.666 707.858 351.84C707.679 351.928 707.487 351.978 707.293 351.987C707.1 351.995 706.909 351.961 706.733 351.887V351.887Z" fill="white"/>
    <path d="M719.281 356.852C719.106 356.784 718.947 356.679 718.815 356.542C718.683 356.405 718.579 356.239 718.51 356.055C718.369 355.684 718.375 355.259 718.527 354.874C718.68 354.489 718.966 354.175 719.322 354.001L722.534 352.516L721.096 348.743C720.955 348.372 720.961 347.948 721.113 347.563C721.266 347.178 721.552 346.864 721.908 346.69C722.265 346.516 722.663 346.497 723.016 346.636C723.368 346.776 723.645 347.062 723.787 347.433L725.798 352.71C725.871 352.893 725.907 353.092 725.906 353.296C725.904 353.499 725.864 353.702 725.788 353.894C725.713 354.085 725.603 354.261 725.465 354.41C725.327 354.559 725.164 354.68 724.986 354.763L720.39 357C720.201 357.058 720.005 357.075 719.814 357.049C719.623 357.024 719.442 356.957 719.281 356.852V356.852Z" fill="white"/>
    <path d="M710.521 355.47C710.356 355.445 710.199 355.383 710.061 355.288C709.913 355.156 709.795 354.991 709.714 354.803C709.633 354.615 709.59 354.409 709.589 354.198C709.588 353.987 709.628 353.775 709.707 353.576C709.786 353.377 709.902 353.195 710.047 353.042L717.986 343.547C718.121 343.384 718.284 343.25 718.464 343.154C718.645 343.057 718.841 343 719.038 342.986C719.236 342.972 719.432 343.001 719.614 343.072C719.795 343.142 719.96 343.252 720.096 343.396C720.243 343.528 720.361 343.693 720.442 343.881C720.524 344.068 720.566 344.274 720.567 344.486C720.569 344.697 720.529 344.909 720.45 345.108C720.371 345.307 720.255 345.489 720.109 345.642L712.028 355.081C711.826 355.283 711.578 355.427 711.313 355.495C711.047 355.564 710.774 355.555 710.521 355.47V355.47Z" fill="white"/>
    <path d="M715.995 374.014L697.386 366.65C695.505 365.906 694.025 364.376 693.271 362.397C692.516 360.418 692.549 358.151 693.363 356.096L703.711 329.944C704.524 327.889 706.051 326.214 707.956 325.287C709.86 324.36 711.986 324.257 713.867 325.001L732.476 332.365C734.356 333.109 735.836 334.639 736.591 336.618C737.345 338.597 737.312 340.864 736.499 342.919L726.15 369.071C725.337 371.126 723.81 372.801 721.906 373.728C720.001 374.655 717.875 374.758 715.995 374.014ZM712.717 327.907C711.542 327.442 710.213 327.506 709.022 328.085C707.832 328.665 706.878 329.712 706.37 330.996L696.021 357.148C695.513 358.433 695.492 359.849 695.964 361.086C696.435 362.323 697.36 363.279 698.535 363.744L717.145 371.108C718.32 371.573 719.649 371.509 720.839 370.93C722.029 370.35 722.984 369.303 723.492 368.019L733.84 341.867C734.349 340.582 734.369 339.166 733.898 337.929C733.426 336.692 732.501 335.736 731.326 335.271L712.717 327.907Z" fill="white"/>
    </g>
    <g clip-path="url(#clip1_21_45)">
    <path d="M757.876 397.092C757.58 396.194 757.575 395.226 757.861 394.325L760.674 385.298C760.754 385.026 760.748 384.736 760.657 384.467C760.566 384.199 760.394 383.965 760.165 383.798L752.476 378.442C751.704 377.897 751.124 377.121 750.82 376.226C750.516 375.33 750.503 374.362 750.783 373.459C751.062 372.556 751.621 371.765 752.378 371.198C753.134 370.632 754.051 370.32 754.996 370.306L764.41 370.106C764.696 370.096 764.972 369.999 765.201 369.827C765.43 369.654 765.601 369.416 765.689 369.144L768.502 360.117C768.777 359.211 769.333 358.416 770.089 357.847C770.846 357.278 771.764 356.965 772.711 356.952C773.658 356.94 774.583 357.23 775.355 357.779C776.126 358.328 776.702 359.108 777 360.007L780.038 368.964C780.129 369.236 780.304 369.472 780.539 369.638C780.773 369.803 781.053 369.89 781.34 369.886L790.827 369.837C791.767 369.832 792.686 370.123 793.452 370.669C794.217 371.214 794.792 371.987 795.094 372.878C795.396 373.769 795.41 374.732 795.134 375.631C794.858 376.53 794.306 377.319 793.557 377.887V377.887L785.97 383.539C785.74 383.711 785.57 383.951 785.485 384.225C785.4 384.499 785.404 384.792 785.497 385.064L788.507 393.942C788.817 394.837 788.835 395.807 788.556 396.712C788.278 397.617 787.719 398.41 786.961 398.976C786.202 399.542 785.282 399.852 784.336 399.86C783.389 399.869 782.464 399.576 781.695 399.024L773.972 393.569C773.74 393.408 773.463 393.322 773.18 393.324C772.897 393.325 772.622 393.414 772.391 393.578L764.811 399.25C764.056 399.82 763.139 400.133 762.193 400.145C761.248 400.157 760.323 399.867 759.554 399.316C758.774 398.77 758.187 397.992 757.876 397.092ZM763.616 383.464C763.913 384.358 763.925 385.323 763.65 386.224L760.837 395.252C760.753 395.527 760.758 395.821 760.85 396.094C760.943 396.367 761.118 396.603 761.352 396.771C761.581 396.94 761.86 397.029 762.144 397.024C762.429 397.019 762.704 396.92 762.927 396.743L770.514 391.09C771.268 390.521 772.185 390.207 773.131 390.195C774.077 390.183 775.002 390.473 775.771 391.024L783.507 396.518C783.737 396.685 784.015 396.775 784.299 396.773C784.584 396.772 784.86 396.679 785.088 396.51C785.324 396.343 785.498 396.103 785.583 395.828C785.669 395.552 785.661 395.256 785.561 394.985L782.511 385.988C782.23 385.103 782.232 384.153 782.515 383.268C782.798 382.384 783.35 381.61 784.093 381.052L791.679 375.4C791.912 375.23 792.084 374.99 792.171 374.715C792.257 374.44 792.254 374.145 792.162 373.872C792.069 373.6 791.892 373.363 791.656 373.198C791.42 373.033 791.138 372.947 790.85 372.953L781.396 373.035C780.465 373.049 779.553 372.773 778.786 372.244C778.019 371.716 777.436 370.961 777.118 370.086L774.041 361.01C773.955 360.735 773.781 360.495 773.546 360.329C773.31 360.162 773.026 360.077 772.738 360.088C772.454 360.092 772.178 360.187 771.951 360.359C771.725 360.531 771.559 360.771 771.478 361.043L768.666 370.071C768.39 370.975 767.833 371.768 767.075 372.334C766.317 372.9 765.398 373.208 764.452 373.215L754.953 373.357C754.668 373.351 754.389 373.44 754.16 373.609C753.931 373.778 753.765 374.018 753.686 374.292C753.602 374.567 753.607 374.862 753.699 375.135C753.792 375.407 753.967 375.644 754.201 375.811L762.023 381.232C762.771 381.794 763.327 382.574 763.616 383.464V383.464Z" fill="#DFD46B"/>
    </g>
    <g clip-path="url(#clip2_21_45)">
    <path d="M519.192 443.274C518.696 442.603 518.355 441.83 518.193 441.011C518.032 440.193 518.053 439.348 518.257 438.539L518.83 435.823C518.918 435.429 518.913 435.02 518.815 434.628C518.717 434.237 518.528 433.873 518.264 433.568L516.381 431.464C515.83 430.842 515.421 430.108 515.181 429.313C514.942 428.517 514.879 427.679 514.996 426.856C515.118 426.034 515.415 425.248 515.868 424.55C516.322 423.853 516.919 423.262 517.621 422.816L520.079 421.268C520.402 421.042 520.669 420.747 520.863 420.404C521.057 420.061 521.172 419.68 521.2 419.287L521.406 416.533C521.455 415.703 521.685 414.894 522.08 414.162C522.474 413.43 523.024 412.793 523.69 412.296C524.356 411.799 525.123 411.453 525.937 411.283C526.75 411.113 527.592 411.122 528.401 411.311L531.117 411.884C531.521 411.972 531.94 411.961 532.339 411.853C532.738 411.745 533.105 411.543 533.41 411.264L535.514 409.381C536.138 408.835 536.873 408.428 537.667 408.189C538.462 407.95 539.299 407.884 540.121 407.996C540.945 408.112 541.734 408.408 542.432 408.861C543.13 409.315 543.72 409.916 544.161 410.621L545.71 413.079C545.931 413.406 546.225 413.677 546.569 413.872C546.913 414.066 547.296 414.178 547.691 414.2L550.444 414.406C551.277 414.445 552.092 414.666 552.83 415.054C553.569 415.441 554.213 415.986 554.719 416.649V416.649C555.215 417.32 555.556 418.093 555.718 418.912C555.879 419.731 555.858 420.575 555.654 421.385V421.385L555.081 424.1C554.996 424.507 555.009 424.929 555.119 425.331C555.229 425.733 555.432 426.102 555.713 426.41L557.596 428.514C558.164 429.139 558.586 429.883 558.833 430.691C559.08 431.498 559.145 432.351 559.023 433.187C558.902 434.023 558.597 434.821 558.131 435.526C557.665 436.23 557.049 436.823 556.327 437.261L553.899 438.71C553.576 438.936 553.308 439.231 553.114 439.574C552.92 439.916 552.805 440.298 552.777 440.691L552.571 443.444C552.522 444.274 552.292 445.083 551.898 445.815C551.504 446.547 550.954 447.184 550.288 447.681C549.622 448.179 548.855 448.525 548.041 448.695C547.227 448.865 546.386 448.855 545.576 448.666L542.861 448.094C542.457 448.006 542.038 448.016 541.639 448.124C541.24 448.232 540.873 448.434 540.568 448.713L538.464 450.596C537.839 451.143 537.105 451.549 536.31 451.788C535.515 452.027 534.679 452.093 533.856 451.982C533.032 451.865 532.244 451.57 531.546 451.116C530.848 450.663 530.258 450.062 529.816 449.356L528.268 446.899C528.042 446.576 527.747 446.308 527.404 446.114C527.061 445.92 526.68 445.805 526.287 445.777L523.533 445.571C522.7 445.532 521.886 445.311 521.147 444.924C520.409 444.536 519.764 443.992 519.259 443.328L519.192 443.274ZM520.893 431.865C521.384 432.539 521.722 433.312 521.884 434.13C522.045 434.948 522.026 435.791 521.828 436.601L521.255 439.316C521.17 439.683 521.166 440.064 521.244 440.433C521.322 440.802 521.479 441.149 521.705 441.451V441.451C521.926 441.781 522.222 442.054 522.57 442.246C522.917 442.439 523.305 442.546 523.702 442.559L526.456 442.765C527.371 442.805 528.264 443.065 529.057 443.522C529.851 443.979 530.523 444.62 531.017 445.392L532.532 447.771C532.727 448.101 532.995 448.383 533.315 448.595C533.635 448.806 533.999 448.942 534.38 448.991C534.759 449.046 535.145 449.017 535.511 448.905C535.877 448.793 536.214 448.603 536.498 448.346L538.598 446.492C539.29 445.891 540.116 445.466 541.008 445.254C541.899 445.041 542.829 445.047 543.717 445.27L546.433 445.843C546.8 445.928 547.181 445.932 547.55 445.855C547.918 445.777 548.266 445.62 548.567 445.394C548.897 445.173 549.17 444.876 549.363 444.529C549.556 444.182 549.663 443.793 549.676 443.396L549.882 440.643C549.923 439.728 550.183 438.836 550.64 438.043C551.097 437.249 551.738 436.577 552.509 436.082L554.887 434.566C555.208 434.367 555.481 434.099 555.687 433.783C555.894 433.466 556.028 433.108 556.081 432.734C556.134 432.36 556.104 431.978 555.993 431.617C555.883 431.256 555.695 430.923 555.442 430.642L553.588 428.542C552.985 427.852 552.559 427.025 552.346 426.133C552.134 425.242 552.14 424.312 552.366 423.423L552.939 420.708C552.996 420.325 552.966 419.935 552.852 419.565C552.739 419.196 552.543 418.857 552.281 418.573V418.573C552.06 418.243 551.764 417.97 551.416 417.777C551.069 417.584 550.68 417.477 550.283 417.464L547.53 417.258C546.616 417.212 545.726 416.949 544.934 416.493C544.141 416.036 543.468 415.398 542.969 414.631L541.453 412.253C541.259 411.922 540.991 411.64 540.671 411.429C540.351 411.217 539.987 411.082 539.606 411.032C539.227 410.977 538.841 411.007 538.475 411.118C538.109 411.23 537.772 411.421 537.488 411.677L535.388 413.531C534.696 414.132 533.869 414.557 532.978 414.77C532.087 414.983 531.157 414.977 530.269 414.753L527.553 414.18C527.186 414.095 526.805 414.091 526.436 414.169C526.068 414.246 525.72 414.404 525.419 414.63C525.089 414.851 524.816 415.147 524.623 415.494C524.43 415.842 524.323 416.23 524.31 416.627L524.104 419.381C524.063 420.296 523.802 421.187 523.345 421.981C522.888 422.774 522.248 423.447 521.477 423.942L519.099 425.457C518.778 425.657 518.505 425.924 518.298 426.241C518.092 426.557 517.958 426.915 517.905 427.29C517.852 427.664 517.882 428.045 517.992 428.406C518.103 428.768 518.291 429.1 518.544 429.381L520.398 431.481L520.893 431.865Z" fill="white"/>
    <path d="M530.728 434.662C529.489 433.002 528.96 430.917 529.257 428.867C529.555 426.816 530.655 424.968 532.315 423.728C533.976 422.489 536.06 421.96 538.111 422.257C540.161 422.555 542.01 423.655 543.249 425.315V425.315C544.489 426.976 545.018 429.06 544.72 431.111C544.423 433.161 543.323 435.01 541.662 436.249C540.002 437.489 537.917 438.018 535.867 437.72C533.816 437.423 531.968 436.323 530.728 434.662ZM540.745 427.185C540.001 426.188 538.892 425.528 537.662 425.35C536.432 425.171 535.181 425.489 534.185 426.233C533.188 426.976 532.528 428.085 532.35 429.316C532.171 430.546 532.489 431.797 533.233 432.793V432.793C533.976 433.789 535.085 434.449 536.316 434.628C537.546 434.806 538.797 434.489 539.793 433.745C540.789 433.001 541.449 431.892 541.628 430.662C541.806 429.432 541.489 428.181 540.745 427.185Z" fill="white"/>
    </g>
    <circle cx="465.554" cy="565.554" r="25" transform="rotate(57.2198 465.554 565.554)" fill="#DFD46B"/>
    <ellipse cx="506.412" cy="789.265" rx="7" ry="6.5" transform="rotate(33.0256 506.412 789.265)" fill="#DFD46B"/>
    <ellipse cx="591.613" cy="455.959" rx="7" ry="6.5" transform="rotate(33.0256 591.613 455.959)" fill="#DFD46B"/>
    <circle cx="571.293" cy="359.293" r="12.5" transform="rotate(33.0256 571.293 359.293)" fill="#40B5F6"/>
    <circle cx="889.279" cy="384.352" r="12.5" transform="rotate(33.0256 889.279 384.352)" fill="#40B5F6"/>
    <path d="M830.555 260.044C826.642 266.063 818.59 267.771 812.57 263.858C806.551 259.945 804.843 251.893 808.756 245.873C812.669 239.854 820.721 238.146 826.741 242.059C832.76 245.972 834.468 254.024 830.555 260.044Z" fill="#40B5F6"/>
    <g clip-path="url(#clip3_21_45)">
    <path fill-rule="evenodd" clip-rule="evenodd" d="M594.445 260.901C594.534 255.958 593.156 251.098 590.484 246.938C587.811 242.778 583.966 239.503 579.432 237.529C574.899 235.554 569.882 234.968 565.016 235.845C560.15 236.721 555.653 239.021 552.094 242.454C548.535 245.886 546.074 250.297 545.021 255.128C543.969 259.959 544.373 264.994 546.182 269.596C547.991 274.198 551.124 278.159 555.185 280.98C559.246 283.802 564.052 285.355 568.996 285.445C575.624 285.562 582.028 283.042 586.8 278.44C591.572 273.838 594.321 267.53 594.445 260.901V260.901ZM591.112 260.841C591.034 265.126 589.688 269.291 587.243 272.81C584.798 276.33 581.364 279.045 577.376 280.613C573.388 282.181 569.025 282.531 564.838 281.619C560.65 280.707 556.828 278.574 553.853 275.489C550.878 272.405 548.885 268.507 548.125 264.29C547.365 260.073 547.873 255.725 549.585 251.796C551.296 247.867 554.134 244.534 557.74 242.218C561.345 239.903 565.557 238.708 569.841 238.786C575.586 238.892 581.053 241.275 585.041 245.411C589.03 249.547 591.213 255.096 591.112 260.841V260.841Z" fill="white"/>
    <path fill-rule="evenodd" clip-rule="evenodd" d="M592.808 259.205L589.476 259.144C589.034 259.136 588.607 259.304 588.288 259.611C587.97 259.918 587.787 260.339 587.779 260.781C587.771 261.223 587.939 261.65 588.246 261.968C588.553 262.286 588.973 262.469 589.415 262.477L592.748 262.538C593.19 262.546 593.617 262.378 593.935 262.071C594.253 261.764 594.437 261.343 594.445 260.901C594.453 260.459 594.285 260.032 593.978 259.714C593.671 259.396 593.25 259.213 592.808 259.205V259.205Z" fill="white"/>
    <path fill-rule="evenodd" clip-rule="evenodd" d="M546.089 261.692L549.422 261.753C549.864 261.761 550.291 261.593 550.609 261.286C550.927 260.979 551.11 260.559 551.118 260.117C551.126 259.675 550.958 259.248 550.652 258.929C550.345 258.611 549.924 258.428 549.482 258.42L546.149 258.36C545.707 258.352 545.28 258.52 544.962 258.826C544.644 259.133 544.461 259.554 544.453 259.996C544.445 260.438 544.613 260.865 544.92 261.183C545.226 261.501 545.647 261.684 546.089 261.692Z" fill="white"/>
    <path fill-rule="evenodd" clip-rule="evenodd" d="M570.693 283.808L570.753 280.476C570.761 280.034 570.593 279.607 570.286 279.288C569.979 278.97 569.559 278.787 569.117 278.779C568.675 278.771 568.248 278.939 567.93 279.246C567.611 279.553 567.428 279.973 567.42 280.415L567.36 283.748C567.352 284.19 567.52 284.617 567.826 284.935C568.133 285.253 568.554 285.437 568.996 285.445C569.438 285.453 569.865 285.285 570.183 284.978C570.501 284.671 570.685 284.25 570.693 283.808Z" fill="white"/>
    <path fill-rule="evenodd" clip-rule="evenodd" d="M571.477 240.482L571.538 237.149C571.546 236.707 571.378 236.28 571.071 235.962C570.764 235.644 570.343 235.461 569.901 235.453C569.46 235.445 569.032 235.613 568.714 235.92C568.396 236.226 568.213 236.647 568.205 237.089L568.145 240.422C568.137 240.864 568.304 241.291 568.611 241.609C568.918 241.927 569.339 242.11 569.781 242.118C570.223 242.126 570.65 241.958 570.968 241.652C571.286 241.345 571.469 240.924 571.477 240.482Z" fill="white"/>
    <path fill-rule="evenodd" clip-rule="evenodd" d="M579.74 273.359C580.045 273.501 580.387 273.548 580.719 273.492C581.051 273.437 581.359 273.282 581.601 273.048C581.844 272.814 582.01 272.512 582.077 272.182C582.145 271.852 582.111 271.509 581.979 271.199L575.368 255.577C575.208 255.197 574.912 254.89 574.538 254.715L559.166 247.544C558.86 247.401 558.519 247.355 558.187 247.41C557.854 247.466 557.547 247.621 557.304 247.854C557.062 248.088 556.896 248.39 556.828 248.72C556.761 249.05 556.795 249.393 556.926 249.703L563.536 265.326C563.697 265.706 563.993 266.013 564.367 266.188L579.74 273.359V273.359ZM577.221 268.506L566.349 263.436L561.677 252.39L572.548 257.459L577.221 268.506Z" fill="white"/>
    <path d="M567.377 260.411C567.357 261.555 568.267 262.499 569.411 262.52C570.555 262.541 571.499 261.63 571.52 260.486C571.541 259.342 570.63 258.398 569.486 258.377C568.342 258.357 567.398 259.267 567.377 260.411Z" fill="white"/>
    </g>
    <g clip-path="url(#clip4_21_45)">
    <path d="M664.684 258.189C664.389 257.291 664.384 256.323 664.67 255.422L667.482 246.394C667.562 246.123 667.556 245.833 667.465 245.564C667.374 245.296 667.203 245.062 666.974 244.895L659.284 239.539C658.512 238.993 657.933 238.217 657.628 237.322C657.324 236.427 657.311 235.459 657.591 234.556C657.871 233.653 658.429 232.862 659.186 232.295C659.943 231.729 660.859 231.416 661.805 231.403L671.218 231.203C671.504 231.193 671.781 231.095 672.01 230.923C672.238 230.751 672.409 230.513 672.498 230.241L675.31 221.213C675.585 220.308 676.141 219.512 676.898 218.944C677.654 218.375 678.573 218.061 679.519 218.049C680.466 218.037 681.392 218.326 682.163 218.876C682.934 219.425 683.511 220.205 683.809 221.104L686.846 230.061C686.937 230.333 687.113 230.569 687.347 230.734C687.581 230.9 687.862 230.987 688.149 230.983L697.635 230.934C698.576 230.929 699.494 231.22 700.26 231.765C701.026 232.311 701.601 233.084 701.903 233.975C702.205 234.865 702.219 235.829 701.943 236.728C701.667 237.627 701.115 238.416 700.365 238.984V238.984L692.778 244.636C692.548 244.808 692.378 245.047 692.293 245.321C692.208 245.595 692.212 245.889 692.305 246.161L695.316 255.039C695.626 255.934 695.643 256.904 695.365 257.808C695.087 258.713 694.528 259.506 693.769 260.072C693.01 260.639 692.091 260.948 691.144 260.957C690.197 260.966 689.273 260.673 688.504 260.121L680.78 254.666C680.548 254.505 680.271 254.419 679.988 254.42C679.706 254.422 679.43 254.511 679.199 254.674L671.619 260.347C670.864 260.916 669.947 261.23 669.002 261.242C668.056 261.254 667.131 260.964 666.362 260.413C665.582 259.867 664.995 259.088 664.684 258.189ZM670.424 244.561C670.722 245.455 670.734 246.42 670.458 247.321L667.646 256.348C667.562 256.624 667.566 256.918 667.659 257.191C667.751 257.463 667.927 257.7 668.161 257.868C668.39 258.037 668.668 258.126 668.953 258.121C669.237 258.116 669.513 258.017 669.735 257.84L677.322 252.187C678.077 251.617 678.994 251.304 679.939 251.292C680.885 251.28 681.81 251.57 682.579 252.121L690.315 257.615C690.545 257.782 690.823 257.872 691.107 257.87C691.392 257.869 691.668 257.776 691.897 257.606C692.132 257.44 692.306 257.2 692.391 256.924C692.477 256.649 692.469 256.353 692.37 256.082L689.319 247.085C689.038 246.2 689.04 245.249 689.323 244.365C689.607 243.481 690.158 242.706 690.901 242.149L698.488 236.497C698.72 236.327 698.892 236.087 698.979 235.812C699.066 235.537 699.063 235.242 698.97 234.969C698.878 234.696 698.7 234.46 698.464 234.295C698.229 234.13 697.946 234.044 697.658 234.05L688.204 234.132C687.273 234.146 686.361 233.87 685.594 233.341C684.827 232.813 684.245 232.058 683.927 231.183L680.849 222.107C680.763 221.832 680.589 221.592 680.354 221.425C680.119 221.259 679.835 221.174 679.546 221.185C679.262 221.189 678.986 221.284 678.76 221.456C678.533 221.628 678.367 221.867 678.286 222.14L675.474 231.167C675.198 232.072 674.641 232.865 673.883 233.431C673.125 233.996 672.206 234.305 671.261 234.312L661.761 234.453C661.476 234.448 661.198 234.537 660.969 234.706C660.74 234.875 660.573 235.115 660.494 235.389C660.411 235.664 660.415 235.959 660.508 236.231C660.6 236.504 660.776 236.741 661.01 236.908L668.831 242.329C669.58 242.891 670.136 243.671 670.424 244.561V244.561Z" fill="#DFD46B"/>
    </g>
    <rect x="739.851" y="273.967" width="32" height="32" rx="3.5" transform="rotate(-3.45064 739.851 273.967)" stroke="#5CD89C" stroke-width="3"/>
    <rect x="436.588" y="340.514" width="32" height="32" rx="3.5" transform="rotate(-3.45064 436.588 340.514)" stroke="#5CD89C" stroke-width="3"/>
    <rect x="723.588" y="201.514" width="32" height="32" rx="3.5" transform="rotate(-3.45064 723.588 201.514)" fill="#5CD89C" stroke="#5CD89C" stroke-width="3"/>
    <g clip-path="url(#clip5_21_45)">
    <path d="M437.718 245.611C437.422 244.713 437.417 243.745 437.703 242.844L440.516 233.817C440.596 233.545 440.59 233.255 440.499 232.987C440.408 232.718 440.236 232.485 440.007 232.318L432.318 226.962C431.546 226.416 430.966 225.64 430.662 224.745C430.358 223.85 430.345 222.882 430.625 221.979C430.904 221.076 431.463 220.284 432.22 219.718C432.976 219.151 433.893 218.839 434.838 218.825L444.252 218.625C444.538 218.615 444.814 218.518 445.043 218.346C445.272 218.174 445.443 217.935 445.532 217.663L448.344 208.636C448.619 207.73 449.175 206.935 449.931 206.366C450.688 205.797 451.606 205.484 452.553 205.472C453.5 205.46 454.426 205.749 455.197 206.298C455.968 206.847 456.544 207.628 456.842 208.526L459.88 217.484C459.971 217.755 460.147 217.991 460.381 218.157C460.615 218.323 460.895 218.41 461.182 218.406L470.669 218.357C471.609 218.351 472.528 218.642 473.294 219.188C474.06 219.734 474.634 220.507 474.936 221.397C475.238 222.288 475.252 223.251 474.976 224.15C474.7 225.049 474.148 225.839 473.399 226.406V226.406L465.812 232.059C465.582 232.23 465.412 232.47 465.327 232.744C465.242 233.018 465.246 233.312 465.339 233.583L468.349 242.462C468.659 243.356 468.677 244.326 468.399 245.231C468.12 246.136 467.562 246.929 466.803 247.495C466.044 248.061 465.125 248.371 464.178 248.38C463.231 248.388 462.306 248.095 461.537 247.543L453.814 242.089C453.582 241.927 453.305 241.841 453.022 241.843C452.739 241.844 452.464 241.933 452.233 242.097L444.653 247.769C443.898 248.339 442.981 248.653 442.035 248.665C441.09 248.677 440.165 248.386 439.396 247.836C438.616 247.289 438.029 246.511 437.718 245.611ZM443.458 231.983C443.755 232.878 443.767 233.842 443.492 234.744L440.679 243.771C440.595 244.046 440.6 244.341 440.692 244.613C440.785 244.886 440.96 245.123 441.194 245.29C441.423 245.46 441.702 245.549 441.986 245.544C442.271 245.539 442.546 245.44 442.769 245.262L450.356 239.61C451.11 239.04 452.027 238.726 452.973 238.714C453.919 238.702 454.844 238.993 455.613 239.543L463.349 245.037C463.579 245.205 463.857 245.294 464.141 245.293C464.426 245.291 464.702 245.199 464.93 245.029C465.166 244.862 465.34 244.622 465.425 244.347C465.511 244.071 465.503 243.775 465.403 243.505L462.353 234.508C462.072 233.623 462.074 232.672 462.357 231.788C462.64 230.903 463.192 230.129 463.935 229.572L471.521 223.919C471.754 223.749 471.926 223.509 472.013 223.235C472.099 222.96 472.096 222.665 472.004 222.392C471.911 222.119 471.734 221.883 471.498 221.717C471.262 221.552 470.98 221.466 470.692 221.473L461.238 221.555C460.307 221.569 459.395 221.292 458.628 220.764C457.861 220.235 457.278 219.481 456.96 218.606L453.883 209.53C453.797 209.254 453.623 209.015 453.388 208.848C453.152 208.681 452.868 208.597 452.58 208.608C452.296 208.612 452.02 208.706 451.793 208.878C451.567 209.05 451.401 209.29 451.32 209.563L448.508 218.59C448.232 219.495 447.675 220.288 446.917 220.853C446.159 221.419 445.24 221.728 444.294 221.735L434.795 221.876C434.51 221.87 434.232 221.959 434.002 222.128C433.773 222.297 433.607 222.538 433.528 222.811C433.444 223.087 433.449 223.381 433.541 223.654C433.634 223.926 433.809 224.163 434.043 224.331L441.865 229.752C442.613 230.314 443.17 231.093 443.458 231.983V231.983Z" fill="#DFD46B"/>
    </g>
    <path d="M189.971 338.81C190.641 338.144 191.504 337.705 192.438 337.557L201.768 336.027C202.047 335.977 202.304 335.841 202.503 335.64C202.702 335.438 202.834 335.18 202.881 334.9L204.224 325.626C204.366 324.691 204.8 323.826 205.463 323.153C206.127 322.48 206.987 322.034 207.92 321.88C208.852 321.725 209.81 321.87 210.655 322.292C211.501 322.715 212.191 323.395 212.627 324.234L217.024 332.559C217.161 332.811 217.372 333.014 217.628 333.142C217.885 333.269 218.174 333.315 218.457 333.272L227.788 331.742C228.721 331.582 229.681 331.722 230.528 332.144C231.376 332.565 232.067 333.246 232.502 334.087C232.938 334.928 233.094 335.885 232.948 336.82C232.803 337.756 232.364 338.621 231.694 339.29L225.047 346.019C224.845 346.223 224.713 346.485 224.669 346.769C224.626 347.052 224.674 347.342 224.806 347.597L229.101 356.056C229.527 356.894 229.679 357.845 229.534 358.775C229.389 359.704 228.956 360.564 228.295 361.233C227.634 361.902 226.779 362.346 225.852 362.502C224.924 362.659 223.971 362.519 223.128 362.103V362.103L214.675 357.853C214.419 357.724 214.128 357.68 213.845 357.727C213.562 357.774 213.301 357.909 213.1 358.114L206.512 364.783C205.851 365.461 204.992 365.911 204.058 366.068C203.125 366.225 202.165 366.081 201.319 365.656C200.473 365.231 199.784 364.548 199.352 363.706C198.92 362.863 198.768 361.905 198.917 360.97L200.332 351.622C200.373 351.342 200.325 351.056 200.197 350.804C200.069 350.551 199.866 350.345 199.616 350.212L191.149 345.977C190.301 345.558 189.61 344.878 189.176 344.038C188.741 343.198 188.586 342.241 188.734 341.307C188.873 340.365 189.306 339.491 189.971 338.81ZM204.726 337.835C204.06 338.502 203.203 338.945 202.273 339.103L192.943 340.633C192.659 340.681 192.398 340.818 192.196 341.022C191.993 341.227 191.861 341.49 191.816 341.774C191.767 342.055 191.812 342.344 191.944 342.596C192.076 342.848 192.288 343.05 192.546 343.169L200.999 347.419C201.846 347.839 202.538 348.518 202.972 349.358C203.407 350.198 203.562 351.155 203.414 352.089L201.969 361.467C201.922 361.748 201.967 362.036 202.095 362.29C202.224 362.543 202.431 362.749 202.685 362.877C202.939 363.013 203.232 363.061 203.516 363.014C203.801 362.967 204.062 362.827 204.26 362.617L210.936 355.858C211.601 355.211 212.452 354.786 213.369 354.643C214.287 354.5 215.226 354.646 216.057 355.061L224.51 359.31C224.766 359.442 225.058 359.488 225.342 359.443C225.627 359.397 225.889 359.262 226.092 359.057C226.294 358.852 226.426 358.588 226.468 358.303C226.51 358.018 226.46 357.727 226.325 357.472L222.016 349.058C221.586 348.232 221.425 347.292 221.554 346.37C221.683 345.447 222.096 344.588 222.736 343.912L229.471 337.094C229.678 336.894 229.815 336.631 229.858 336.346C229.902 336.061 229.85 335.769 229.711 335.516C229.58 335.264 229.372 335.06 229.117 334.934C228.861 334.808 228.573 334.768 228.293 334.818L218.962 336.348C218.03 336.507 217.071 336.364 216.226 335.94C215.381 335.516 214.693 334.833 214.263 333.991L209.88 325.562C209.757 325.305 209.553 325.095 209.299 324.966C209.046 324.837 208.756 324.796 208.476 324.848C208.193 324.897 207.931 325.033 207.729 325.238C207.527 325.442 207.394 325.705 207.349 325.99L206.007 335.411C205.84 336.332 205.393 337.179 204.726 337.835V337.835Z" fill="#DFD46B"/>
    <path d="M304.093 292.986C305.173 301.095 296.588 307 289.401 303.09L265.584 290.132C259.029 286.566 258.548 277.337 264.696 273.109L284.935 259.19C291.083 254.961 299.529 258.712 300.514 266.109L304.093 292.986Z" fill="#40B5F7"/>
    <path d="M342.596 810.894L318.779 797.936C313.863 795.262 313.502 788.34 318.113 785.169L338.351 771.249C342.962 768.078 349.297 770.891 350.036 776.439L353.615 803.316C354.424 809.398 347.986 813.826 342.596 810.894Z" stroke="#40B5F7" stroke-width="5"/>
    <path d="M267.596 625.894L243.779 612.936C238.862 610.262 238.501 603.34 243.113 600.169L263.351 586.249C267.962 583.078 274.297 585.892 275.036 591.439L278.614 618.316C279.424 624.398 272.986 628.826 267.596 625.894Z" stroke="#40B5F7" stroke-width="5"/>
    <rect x="500.7" y="824.121" width="47.4863" height="43.9342" rx="5.5" transform="rotate(45.9544 500.7 824.121)" stroke="#5CD89C" stroke-width="3"/>
    <rect x="350.7" y="186.121" width="47.4863" height="43.9342" rx="5.5" transform="rotate(45.9544 350.7 186.121)" stroke="#5CD89C" stroke-width="3"/>
    <rect x="575.992" y="526.848" width="33" height="33" rx="3.5" transform="rotate(77.5002 575.992 526.848)" stroke="#5CD89C" stroke-width="3"/>
    <path d="M374.1 332.409L382.346 355.465C384.67 361.966 381.285 369.12 374.785 371.445L355.074 378.494C348.573 380.819 341.419 377.434 339.094 370.933L330.849 347.877C328.524 341.377 331.909 334.223 338.409 331.898L358.121 324.848C364.621 322.524 371.775 325.909 374.1 332.409Z" fill="#5CD89C" stroke="black"/>
    <circle cx="323.633" cy="673.633" r="23.5" transform="rotate(96.4045 323.633 673.633)" stroke="#40B5F6" stroke-width="3"/>
    <path d="M203.248 462.362C201.593 471.268 193.031 477.146 184.125 475.49C175.219 473.835 169.342 465.273 170.997 456.367L179.221 412.125C180.876 403.219 189.438 397.342 198.343 398.997C207.249 400.653 213.127 409.214 211.472 418.12L203.248 462.362Z" fill="#DFD46B"/>
    <path d="M203.248 462.362C201.593 471.268 193.031 477.146 184.125 475.49C175.219 473.835 169.342 465.273 170.997 456.367L179.221 412.125C180.876 403.219 189.438 397.342 198.343 398.997C207.249 400.653 213.127 409.214 211.472 418.12L203.248 462.362Z" stroke="black"/>
    <g clip-path="url(#clip6_21_45)">
    <path d="M390.109 715.714C390.091 715.527 390.115 715.338 390.178 715.159C390.241 714.979 390.343 714.812 390.477 714.668L393.931 710.9C394.062 710.753 394.223 710.632 394.406 710.542C394.588 710.453 394.788 710.397 394.993 710.379C395.198 710.361 395.404 710.381 395.6 710.437C395.795 710.493 395.976 710.585 396.13 710.707L400.615 714.139C400.93 714.38 401.126 714.727 401.159 715.105C401.192 715.482 401.061 715.859 400.793 716.151C400.524 716.444 400.142 716.628 399.729 716.664C399.317 716.701 398.908 716.586 398.593 716.345L395.193 713.832L392.856 716.506C392.587 716.798 392.205 716.983 391.792 717.019C391.38 717.055 390.971 716.94 390.656 716.699C390.496 716.579 390.365 716.429 390.271 716.26C390.177 716.09 390.122 715.905 390.109 715.714V715.714Z" fill="white"/>
    <path d="M391.293 729.157C391.275 728.97 391.299 728.781 391.362 728.601C391.425 728.422 391.527 728.255 391.661 728.11C391.929 727.818 392.311 727.633 392.724 727.597C393.136 727.561 393.545 727.676 393.86 727.917L396.627 730.122L399.356 727.146C399.624 726.853 400.006 726.669 400.419 726.633C400.831 726.596 401.24 726.711 401.555 726.952C401.87 727.193 402.066 727.541 402.099 727.918C402.132 728.296 402.001 728.672 401.733 728.965L397.916 733.128C397.785 733.275 397.623 733.396 397.441 733.486C397.258 733.575 397.059 733.631 396.854 733.649C396.649 733.667 396.443 733.647 396.247 733.591C396.052 733.535 395.871 733.443 395.717 733.321L391.658 730.215C391.521 730.072 391.418 729.904 391.356 729.722C391.293 729.54 391.271 729.348 391.293 729.157V729.157Z" fill="white"/>
    <path d="M388.604 720.707C388.552 720.547 388.537 720.379 388.56 720.213C388.612 720.022 388.707 719.843 388.838 719.686C388.969 719.529 389.135 719.399 389.323 719.303C389.511 719.208 389.719 719.148 389.932 719.13C390.145 719.111 390.36 719.133 390.562 719.195L402.608 722.038C402.814 722.085 403.006 722.17 403.173 722.289C403.341 722.408 403.479 722.557 403.58 722.727C403.682 722.897 403.743 723.085 403.762 723.279C403.78 723.474 403.755 723.67 403.688 723.856C403.636 724.047 403.541 724.226 403.41 724.383C403.279 724.54 403.113 724.67 402.925 724.766C402.737 724.862 402.529 724.921 402.316 724.939C402.103 724.958 401.888 724.936 401.686 724.874L389.627 721.88C389.355 721.789 389.116 721.632 388.936 721.426C388.755 721.219 388.64 720.971 388.604 720.707V720.707Z" fill="white"/>
    <path d="M374.478 733.909L372.723 713.973C372.545 711.959 373.25 709.95 374.681 708.389C376.112 706.827 378.153 705.841 380.355 705.648L408.372 703.181C410.573 702.987 412.755 703.601 414.437 704.888C416.12 706.176 417.164 708.03 417.342 710.044L419.097 729.981C419.274 731.995 418.57 734.004 417.138 735.565C415.707 737.126 413.666 738.112 411.464 738.306L383.448 740.773C381.246 740.967 379.064 740.353 377.382 739.066C375.7 737.778 374.655 735.924 374.478 733.909ZM414.229 710.319C414.118 709.06 413.465 707.9 412.414 707.096C411.362 706.291 409.998 705.908 408.622 706.029L380.606 708.496C379.23 708.617 377.954 709.233 377.06 710.209C376.165 711.185 375.725 712.44 375.836 713.699L377.591 733.635C377.702 734.894 378.355 736.053 379.406 736.858C380.457 737.662 381.821 738.046 383.197 737.925L411.214 735.458C412.59 735.337 413.865 734.721 414.76 733.745C415.655 732.769 416.095 731.514 415.984 730.255L414.229 710.319Z" fill="white"/>
    </g>
    <g clip-path="url(#clip7_21_45)">
    <path d="M396.27 806.101C396.94 805.435 397.803 804.997 398.737 804.849L408.067 803.318C408.346 803.268 408.603 803.133 408.802 802.931C409.001 802.73 409.133 802.471 409.18 802.192L410.523 792.917C410.665 791.983 411.099 791.117 411.762 790.444C412.426 789.771 413.286 789.325 414.219 789.171C415.151 789.016 416.109 789.161 416.955 789.584C417.8 790.007 418.49 790.686 418.926 791.525L423.323 799.851C423.46 800.102 423.671 800.306 423.927 800.433C424.184 800.561 424.473 800.606 424.756 800.564L434.087 799.033C435.02 798.873 435.98 799.014 436.827 799.435C437.675 799.857 438.366 800.537 438.801 801.378C439.237 802.219 439.393 803.176 439.247 804.112C439.102 805.047 438.663 805.912 437.993 806.581L431.346 813.31C431.144 813.514 431.012 813.777 430.969 814.06C430.925 814.344 430.973 814.634 431.105 814.888L435.4 823.347C435.826 824.186 435.978 825.137 435.833 826.066C435.688 826.995 435.255 827.856 434.594 828.525C433.933 829.194 433.078 829.638 432.151 829.794C431.223 829.95 430.27 829.81 429.427 829.394V829.394L420.974 825.145C420.718 825.016 420.427 824.971 420.144 825.018C419.861 825.065 419.6 825.2 419.399 825.405L412.811 832.075C412.15 832.753 411.291 833.203 410.357 833.36C409.424 833.516 408.464 833.372 407.618 832.947C406.772 832.523 406.083 831.84 405.651 830.997C405.219 830.155 405.067 829.197 405.216 828.262L406.631 818.913C406.672 818.633 406.624 818.347 406.496 818.095C406.368 817.843 406.165 817.636 405.915 817.503L397.448 813.268C396.601 812.849 395.909 812.17 395.475 811.33C395.04 810.49 394.885 809.533 395.033 808.599C395.172 807.657 395.605 806.783 396.27 806.101ZM411.025 805.127C410.359 805.793 409.502 806.236 408.573 806.394L399.242 807.925C398.958 807.973 398.697 808.109 398.495 808.314C398.292 808.519 398.16 808.782 398.115 809.066C398.066 809.346 398.111 809.635 398.243 809.888C398.375 810.14 398.587 810.341 398.845 810.461L407.298 814.711C408.145 815.13 408.837 815.809 409.271 816.649C409.706 817.489 409.861 818.446 409.713 819.38L408.268 828.759C408.221 829.039 408.266 829.327 408.394 829.581C408.523 829.835 408.73 830.041 408.984 830.168C409.238 830.304 409.531 830.352 409.815 830.305C410.1 830.258 410.361 830.119 410.559 829.908L417.235 823.15C417.9 822.502 418.751 822.078 419.668 821.935C420.586 821.792 421.525 821.938 422.356 822.352L430.809 826.602C431.065 826.733 431.357 826.78 431.641 826.734C431.926 826.689 432.188 826.554 432.391 826.349C432.593 826.144 432.725 825.879 432.767 825.594C432.809 825.309 432.759 825.018 432.624 824.764L428.315 816.349C427.885 815.523 427.724 814.583 427.853 813.661C427.982 812.739 428.395 811.88 429.035 811.203L435.77 804.385C435.977 804.185 436.114 803.922 436.157 803.637C436.201 803.352 436.149 803.06 436.01 802.808C435.879 802.555 435.671 802.351 435.416 802.225C435.16 802.1 434.872 802.059 434.592 802.109L425.261 803.64C424.329 803.799 423.37 803.656 422.525 803.232C421.68 802.808 420.992 802.124 420.562 801.282L416.179 792.853C416.056 792.596 415.852 792.387 415.598 792.258C415.345 792.129 415.055 792.087 414.775 792.14C414.492 792.188 414.23 792.324 414.028 792.529C413.826 792.734 413.693 792.997 413.648 793.281L412.306 802.703C412.139 803.624 411.692 804.47 411.025 805.127V805.127Z" fill="#DFD46B"/>
    </g>
    <g clip-path="url(#clip8_21_45)">
    <path d="M213.703 646.598C214.081 645.854 214.619 645.202 215.279 644.691C215.938 644.179 216.703 643.821 217.518 643.64L220.202 642.935C220.594 642.838 220.957 642.65 221.264 642.387C221.57 642.123 221.81 641.792 221.965 641.419L223.002 638.793C223.311 638.022 223.784 637.327 224.388 636.756C224.992 636.186 225.712 635.754 226.5 635.49C227.29 635.23 228.127 635.144 228.953 635.237C229.779 635.329 230.576 635.599 231.288 636.027L233.774 637.53C234.121 637.717 234.505 637.824 234.898 637.844C235.291 637.864 235.684 637.796 236.047 637.645L238.601 636.595C239.365 636.267 240.192 636.11 241.023 636.135C241.854 636.159 242.669 636.365 243.413 636.738C244.156 637.111 244.809 637.641 245.325 638.292C245.842 638.944 246.21 639.7 246.404 640.509L247.109 643.193C247.212 643.593 247.409 643.963 247.684 644.271C247.959 644.58 248.304 644.818 248.691 644.965L251.317 646.002C252.085 646.316 252.777 646.79 253.347 647.394C253.917 647.997 254.351 648.715 254.62 649.5C254.885 650.289 254.974 651.127 254.881 651.954C254.788 652.781 254.516 653.578 254.083 654.289L252.58 656.774C252.387 657.119 252.276 657.503 252.256 657.898C252.236 658.292 252.308 658.685 252.465 659.048L253.515 661.602C253.853 662.364 254.02 663.191 254.005 664.025C253.989 664.858 253.791 665.679 253.425 666.428V666.428C253.047 667.172 252.509 667.823 251.85 668.335C251.19 668.846 250.425 669.205 249.61 669.386V669.386L246.926 670.091C246.524 670.197 246.152 670.397 245.842 670.676C245.533 670.954 245.293 671.302 245.145 671.691L244.107 674.317C243.802 675.105 243.327 675.815 242.715 676.398C242.104 676.98 241.371 677.42 240.569 677.686C239.768 677.953 238.917 678.038 238.078 677.937C237.24 677.836 236.434 677.551 235.718 677.101L233.335 675.58C232.989 675.393 232.605 675.285 232.212 675.266C231.818 675.246 231.426 675.314 231.062 675.465L228.508 676.515C227.744 676.843 226.918 677 226.087 676.975C225.255 676.951 224.44 676.745 223.697 676.372C222.954 675.999 222.301 675.469 221.784 674.817C221.267 674.166 220.899 673.41 220.705 672.601L220 669.917C219.898 669.517 219.701 669.147 219.425 668.838C219.15 668.53 218.805 668.292 218.419 668.145L215.793 667.107C215.024 666.794 214.332 666.32 213.762 665.716C213.192 665.113 212.758 664.394 212.49 663.609C212.225 662.82 212.135 661.983 212.228 661.156C212.321 660.329 212.593 659.532 213.027 658.821L214.53 656.335C214.717 655.989 214.824 655.605 214.844 655.212C214.864 654.819 214.796 654.426 214.644 654.062L213.595 651.508C213.256 650.746 213.089 649.919 213.104 649.085C213.12 648.251 213.318 647.431 213.685 646.682L213.703 646.598ZM224.665 643.006C224.282 643.747 223.743 644.396 223.084 644.907C222.425 645.417 221.663 645.778 220.85 645.964L218.166 646.669C217.8 646.757 217.457 646.924 217.162 647.159C216.868 647.394 216.628 647.69 216.459 648.027V648.027C216.263 648.373 216.152 648.76 216.135 649.157C216.119 649.554 216.197 649.949 216.363 650.31L217.413 652.864C217.788 653.7 217.955 654.614 217.902 655.528C217.849 656.443 217.577 657.331 217.108 658.118L215.661 660.539C215.453 660.861 215.321 661.227 215.275 661.608C215.229 661.989 215.271 662.375 215.398 662.737C215.518 663.1 215.718 663.432 215.981 663.71C216.245 663.987 216.567 664.203 216.923 664.342L219.522 665.388C220.369 665.738 221.119 666.286 221.709 666.988C222.298 667.689 222.71 668.523 222.908 669.418L223.613 672.102C223.701 672.468 223.868 672.811 224.103 673.105C224.337 673.4 224.634 673.64 224.971 673.808C225.316 674.005 225.704 674.116 226.1 674.132C226.497 674.149 226.893 674.071 227.253 673.904L229.808 672.855C230.644 672.482 231.558 672.315 232.472 672.368C233.386 672.421 234.274 672.693 235.062 673.16L237.482 674.607C237.805 674.804 238.166 674.929 238.542 674.971C238.917 675.014 239.297 674.973 239.656 674.853C240.014 674.733 240.341 674.535 240.615 674.274C240.888 674.014 241.101 673.696 241.239 673.344L242.286 670.746C242.633 669.898 243.181 669.147 243.883 668.557C244.585 667.967 245.419 667.556 246.315 667.36L248.999 666.655C249.366 666.535 249.702 666.334 249.981 666.066C250.261 665.799 250.476 665.472 250.613 665.111V665.111C250.809 664.765 250.92 664.378 250.937 663.981C250.953 663.584 250.875 663.189 250.709 662.828L249.659 660.274C249.291 659.436 249.127 658.523 249.18 657.61C249.233 656.697 249.502 655.809 249.964 655.019L251.411 652.599C251.619 652.277 251.751 651.911 251.797 651.53C251.843 651.149 251.801 650.763 251.675 650.4C251.554 650.037 251.354 649.705 251.091 649.428C250.827 649.151 250.505 648.935 250.149 648.796L247.55 647.749C246.703 647.4 245.953 646.851 245.363 646.15C244.774 645.448 244.362 644.615 244.164 643.72L243.459 641.036C243.371 640.67 243.204 640.327 242.969 640.032C242.735 639.737 242.438 639.497 242.101 639.329C241.756 639.133 241.369 639.022 240.972 639.005C240.575 638.989 240.179 639.067 239.819 639.233L237.265 640.283C236.428 640.656 235.515 640.823 234.6 640.77C233.686 640.717 232.798 640.445 232.01 639.978L229.59 638.531C229.267 638.333 228.906 638.209 228.53 638.166C228.155 638.124 227.775 638.164 227.417 638.285C227.058 638.405 226.731 638.603 226.457 638.863C226.184 639.124 225.971 639.441 225.833 639.793L224.787 642.391L224.665 643.006Z" fill="white"/>
    <path d="M226.571 653.052C227.5 651.2 229.127 649.793 231.093 649.14C233.06 648.487 235.205 648.643 237.057 649.572C238.909 650.5 240.317 652.127 240.969 654.094C241.622 656.06 241.467 658.205 240.538 660.057V660.057C239.609 661.91 237.982 663.317 236.016 663.97C234.049 664.622 231.904 664.467 230.052 663.538C228.2 662.609 226.793 660.983 226.14 659.016C225.487 657.05 225.642 654.904 226.571 653.052ZM237.745 658.656C238.302 657.545 238.395 656.258 238.003 655.078C237.612 653.898 236.767 652.922 235.656 652.365C234.545 651.807 233.258 651.714 232.078 652.106C230.898 652.498 229.922 653.342 229.365 654.453V654.453C228.807 655.565 228.714 656.852 229.106 658.032C229.498 659.212 230.342 660.188 231.453 660.745C232.564 661.302 233.852 661.395 235.031 661.004C236.211 660.612 237.187 659.768 237.745 658.656Z" fill="white"/>
    </g>
    <circle cx="278.244" cy="508.244" r="25" transform="rotate(120.599 278.244 508.244)" fill="#DFD46B"/>
    <circle cx="740.244" cy="456.244" r="25" transform="rotate(120.599 740.244 456.244)" fill="#DFD46B"/>
    <ellipse cx="276.24" cy="742.681" rx="7" ry="6.5" transform="rotate(96.4045 276.24 742.681)" fill="#DFD46B"/>
    <path d="M507.5 509.5C503.932 509.099 501.39 505.66 501.821 501.818C502.252 497.977 505.494 495.187 509.061 495.587C512.629 495.988 515.171 499.427 514.74 503.269C514.309 507.11 511.067 509.9 507.5 509.5Z" fill="#DFD46B"/>
    <circle cx="331.802" cy="564.876" r="12.5" transform="rotate(96.4045 331.802 564.876)" fill="#40B5F6"/>
    <circle cx="551.369" cy="807.369" r="13" transform="rotate(96.4045 551.369 807.369)" fill="#40B5F6"/>
    <g clip-path="url(#clip9_21_45)">
    <path fill-rule="evenodd" clip-rule="evenodd" d="M390.14 639.893C394.6 637.758 398.326 634.349 400.848 630.096C403.37 625.843 404.574 620.937 404.308 616C404.042 611.062 402.318 606.315 399.354 602.357C396.39 598.4 392.319 595.41 387.655 593.766C382.992 592.123 377.946 591.899 373.155 593.123C368.365 594.347 364.045 596.964 360.742 600.643C357.438 604.323 355.3 608.899 354.598 613.793C353.896 618.688 354.66 623.68 356.796 628.14C359.661 634.118 364.783 638.714 371.035 640.918C377.288 643.122 384.159 642.753 390.14 639.893V639.893ZM388.701 636.887C384.836 638.737 380.509 639.4 376.267 638.791C372.025 638.183 368.059 636.33 364.87 633.467C361.681 630.604 359.413 626.86 358.352 622.708C357.291 618.557 357.486 614.183 358.91 610.142C360.335 606.1 362.926 602.572 366.356 600.003C369.785 597.434 373.9 595.94 378.179 595.709C382.458 595.479 386.71 596.522 390.395 598.708C394.081 600.894 397.036 604.123 398.887 607.988C401.366 613.172 401.685 619.127 399.775 624.546C397.865 629.965 393.882 634.404 388.701 636.887V636.887Z" fill="white"/>
    <path fill-rule="evenodd" clip-rule="evenodd" d="M390.924 637.671L389.484 634.664C389.293 634.265 388.952 633.959 388.535 633.812C388.118 633.665 387.66 633.69 387.261 633.88C386.863 634.071 386.556 634.413 386.409 634.83C386.262 635.247 386.287 635.705 386.478 636.103L387.917 639.11C388.108 639.509 388.449 639.815 388.866 639.962C389.283 640.109 389.741 640.084 390.14 639.893C390.539 639.703 390.845 639.361 390.992 638.944C391.139 638.527 391.115 638.069 390.924 637.671V637.671Z" fill="white"/>
    <path fill-rule="evenodd" clip-rule="evenodd" d="M367.765 597.019L369.205 600.025C369.396 600.424 369.737 600.73 370.154 600.877C370.571 601.024 371.029 600.999 371.428 600.809C371.826 600.618 372.133 600.276 372.28 599.859C372.427 599.443 372.402 598.984 372.211 598.586L370.772 595.579C370.581 595.18 370.24 594.874 369.823 594.727C369.406 594.58 368.948 594.605 368.549 594.796C368.15 594.986 367.844 595.328 367.697 595.745C367.55 596.162 367.575 596.62 367.765 597.019Z" fill="white"/>
    <path fill-rule="evenodd" clip-rule="evenodd" d="M359.019 628.924L362.025 627.484C362.424 627.293 362.73 626.952 362.877 626.535C363.024 626.118 363 625.66 362.809 625.261C362.618 624.863 362.276 624.556 361.859 624.409C361.443 624.262 360.984 624.287 360.586 624.478L357.579 625.917C357.18 626.108 356.874 626.449 356.727 626.866C356.58 627.283 356.605 627.741 356.796 628.14C356.986 628.539 357.328 628.845 357.745 628.992C358.162 629.139 358.62 629.115 359.019 628.924Z" fill="white"/>
    <path fill-rule="evenodd" clip-rule="evenodd" d="M398.103 610.211L401.11 608.772C401.509 608.581 401.815 608.24 401.962 607.823C402.109 607.406 402.084 606.948 401.894 606.549C401.703 606.15 401.361 605.844 400.944 605.697C400.527 605.55 400.069 605.574 399.671 605.765L396.664 607.205C396.265 607.396 395.959 607.737 395.812 608.154C395.665 608.571 395.69 609.029 395.88 609.428C396.071 609.826 396.413 610.133 396.83 610.28C397.247 610.427 397.705 610.402 398.103 610.211Z" fill="white"/>
    <path fill-rule="evenodd" clip-rule="evenodd" d="M372.414 632.33C372.424 632.666 372.535 632.992 372.734 633.265C372.932 633.537 373.209 633.743 373.526 633.855C373.844 633.967 374.188 633.98 374.514 633.892C374.839 633.804 375.13 633.62 375.349 633.364L386.352 620.453C386.62 620.14 386.762 619.738 386.751 619.325L386.274 602.369C386.264 602.032 386.153 601.706 385.954 601.434C385.756 601.162 385.48 600.956 385.162 600.844C384.844 600.732 384.5 600.719 384.175 600.807C383.849 600.894 383.558 601.078 383.34 601.335L372.335 614.244C372.067 614.558 371.925 614.961 371.937 615.373L372.414 632.33V632.33ZM375.624 627.903L375.285 615.912L383.066 606.785L383.406 618.776L375.624 627.903Z" fill="white"/>
    <path d="M378.45 615.476C377.418 615.97 376.982 617.207 377.476 618.239C377.97 619.271 379.207 619.707 380.239 619.213C381.271 618.719 381.707 617.482 381.213 616.45C380.719 615.418 379.482 614.982 378.45 615.476Z" fill="white"/>
    </g>
    <g clip-path="url(#clip10_21_45)">
    <path d="M442.27 634.101C442.94 633.435 443.803 632.997 444.737 632.849L454.067 631.318C454.346 631.268 454.603 631.133 454.802 630.931C455.001 630.73 455.133 630.471 455.18 630.192L456.523 620.917C456.664 619.983 457.098 619.117 457.762 618.444C458.426 617.771 459.286 617.325 460.219 617.171C461.151 617.016 462.109 617.161 462.954 617.584C463.8 618.007 464.49 618.686 464.926 619.525L469.323 627.851C469.46 628.102 469.671 628.306 469.927 628.433C470.183 628.561 470.473 628.606 470.756 628.564L480.087 627.033C481.02 626.873 481.979 627.014 482.827 627.435C483.675 627.857 484.366 628.537 484.801 629.378C485.237 630.219 485.393 631.176 485.247 632.112C485.102 633.047 484.663 633.912 483.993 634.581L477.346 641.31C477.144 641.514 477.012 641.776 476.968 642.06C476.925 642.344 476.973 642.634 477.105 642.888L481.4 651.347C481.826 652.186 481.978 653.137 481.833 654.066C481.688 654.995 481.255 655.855 480.594 656.525C479.933 657.194 479.078 657.638 478.151 657.794C477.223 657.95 476.27 657.81 475.427 657.394V657.394L466.974 653.145C466.718 653.016 466.427 652.971 466.144 653.018C465.861 653.065 465.6 653.2 465.399 653.405L458.811 660.075C458.15 660.753 457.291 661.203 456.357 661.36C455.424 661.516 454.464 661.372 453.618 660.947C452.772 660.523 452.083 659.84 451.651 658.997C451.219 658.155 451.067 657.197 451.216 656.262L452.631 646.913C452.671 646.633 452.624 646.347 452.496 646.095C452.368 645.843 452.165 645.636 451.915 645.503L443.448 641.268C442.6 640.849 441.909 640.17 441.474 639.33C441.04 638.49 440.885 637.533 441.033 636.599C441.172 635.657 441.605 634.783 442.27 634.101ZM457.025 633.127C456.359 633.793 455.502 634.236 454.572 634.394L445.242 635.925C444.958 635.973 444.697 636.109 444.495 636.314C444.292 636.518 444.159 636.782 444.115 637.066C444.066 637.346 444.111 637.635 444.243 637.888C444.375 638.14 444.587 638.341 444.845 638.461L453.298 642.71C454.145 643.13 454.837 643.809 455.271 644.649C455.706 645.489 455.861 646.446 455.713 647.38L454.268 656.759C454.221 657.039 454.266 657.327 454.394 657.581C454.523 657.835 454.73 658.04 454.984 658.168C455.238 658.304 455.531 658.352 455.815 658.305C456.1 658.258 456.361 658.119 456.559 657.908L463.235 651.15C463.9 650.502 464.751 650.078 465.668 649.935C466.586 649.792 467.525 649.938 468.356 650.352L476.809 654.602C477.065 654.733 477.357 654.78 477.641 654.734C477.926 654.689 478.188 654.554 478.391 654.349C478.593 654.144 478.725 653.879 478.767 653.594C478.809 653.309 478.759 653.018 478.624 652.764L474.315 644.349C473.885 643.523 473.724 642.583 473.853 641.661C473.982 640.739 474.395 639.88 475.035 639.203L481.769 632.385C481.977 632.185 482.114 631.922 482.157 631.637C482.201 631.352 482.149 631.06 482.01 630.807C481.879 630.555 481.671 630.351 481.416 630.225C481.16 630.1 480.872 630.059 480.592 630.109L471.261 631.64C470.329 631.799 469.37 631.656 468.525 631.232C467.68 630.808 466.992 630.124 466.562 629.282L462.179 620.853C462.056 620.596 461.852 620.387 461.598 620.258C461.344 620.129 461.055 620.087 460.775 620.14C460.491 620.188 460.23 620.324 460.028 620.529C459.826 620.734 459.693 620.997 459.648 621.281L458.306 630.703C458.139 631.624 457.691 632.47 457.025 633.127V633.127Z" fill="#DFD46B"/>
    </g>
    <rect x="473.288" y="695.97" width="32" height="32" rx="3.5" transform="rotate(59.9283 473.288 695.97)" stroke="#5CD89C" stroke-width="3"/>
    <rect x="460.728" y="462.109" width="32" height="32" rx="3.5" transform="rotate(59.9283 460.728 462.109)" stroke="#5CD89C" stroke-width="3"/>
    <rect x="296.214" y="372.955" width="43.0102" height="42.3814" rx="3.5" transform="rotate(67.8688 296.214 372.955)" stroke="#5CD89C" stroke-width="3"/>
    <rect x="545.742" y="715.05" width="32" height="32" rx="3.5" transform="rotate(59.9283 545.742 715.05)" fill="#5CD89C" stroke="#5CD89C" stroke-width="3"/>
    <g clip-path="url(#clip11_21_45)">
    <path d="M344.27 479.101C344.94 478.435 345.803 477.997 346.737 477.849L356.067 476.318C356.346 476.268 356.603 476.133 356.802 475.931C357.001 475.729 357.133 475.471 357.18 475.192L358.523 465.917C358.665 464.983 359.099 464.117 359.763 463.444C360.426 462.771 361.286 462.325 362.219 462.171C363.151 462.016 364.109 462.161 364.955 462.584C365.8 463.007 366.49 463.686 366.926 464.525L371.323 472.851C371.46 473.102 371.671 473.306 371.927 473.433C372.184 473.561 372.473 473.606 372.756 473.564L382.087 472.033C383.02 471.873 383.98 472.014 384.827 472.435C385.675 472.857 386.366 473.537 386.802 474.378C387.237 475.219 387.393 476.176 387.247 477.112C387.102 478.047 386.663 478.912 385.993 479.581L379.346 486.31C379.144 486.514 379.012 486.776 378.969 487.06C378.925 487.344 378.973 487.634 379.105 487.888L383.4 496.347C383.826 497.186 383.978 498.137 383.833 499.066C383.688 499.995 383.255 500.855 382.594 501.525C381.933 502.194 381.078 502.638 380.151 502.794C379.223 502.95 378.27 502.81 377.427 502.394V502.394L368.974 498.145C368.718 498.016 368.427 497.971 368.144 498.018C367.861 498.065 367.601 498.2 367.399 498.405L360.811 505.075C360.15 505.753 359.291 506.203 358.357 506.359C357.424 506.516 356.464 506.372 355.618 505.947C354.772 505.523 354.083 504.839 353.651 503.997C353.219 503.155 353.067 502.197 353.216 501.262L354.631 491.913C354.672 491.633 354.624 491.347 354.496 491.095C354.368 490.843 354.165 490.636 353.916 490.503L345.448 486.268C344.601 485.849 343.909 485.17 343.475 484.33C343.04 483.49 342.885 482.533 343.033 481.599C343.172 480.657 343.605 479.783 344.27 479.101ZM359.025 478.127C358.359 478.793 357.502 479.236 356.573 479.394L347.242 480.924C346.958 480.973 346.697 481.109 346.495 481.314C346.293 481.518 346.16 481.781 346.115 482.066C346.066 482.346 346.111 482.635 346.243 482.887C346.375 483.14 346.587 483.341 346.845 483.461L355.298 487.71C356.146 488.13 356.837 488.809 357.272 489.649C357.706 490.489 357.861 491.446 357.713 492.38L356.268 501.758C356.221 502.039 356.266 502.327 356.395 502.581C356.523 502.835 356.73 503.04 356.984 503.168C357.239 503.304 357.531 503.352 357.815 503.305C358.1 503.258 358.361 503.119 358.559 502.908L365.235 496.149C365.9 495.502 366.751 495.077 367.668 494.935C368.586 494.792 369.525 494.938 370.356 495.352L378.809 499.602C379.065 499.733 379.357 499.78 379.641 499.734C379.926 499.689 380.188 499.553 380.391 499.349C380.593 499.144 380.725 498.879 380.767 498.594C380.809 498.309 380.759 498.018 380.625 497.764L376.315 489.349C375.885 488.523 375.724 487.583 375.853 486.661C375.982 485.739 376.395 484.88 377.035 484.203L383.77 477.385C383.978 477.185 384.114 476.922 384.157 476.637C384.201 476.352 384.149 476.06 384.01 475.807C383.879 475.555 383.671 475.351 383.416 475.225C383.161 475.1 382.872 475.059 382.592 475.109L373.261 476.64C372.329 476.799 371.37 476.656 370.525 476.232C369.68 475.808 368.992 475.124 368.562 474.282L364.179 465.853C364.057 465.596 363.852 465.387 363.599 465.258C363.345 465.129 363.055 465.087 362.775 465.14C362.492 465.188 362.23 465.324 362.028 465.529C361.826 465.734 361.693 465.997 361.648 466.281L360.306 475.703C360.139 476.623 359.692 477.47 359.025 478.127V478.127Z" fill="#DFD46B"/>
    </g>
    <path d="M633.172 485.752C641.111 483.774 647.936 491.646 644.852 499.224L634.632 524.338C631.82 531.25 622.702 532.758 617.814 527.12L601.724 508.56C596.836 502.922 599.622 494.11 606.862 492.306L633.172 485.752Z" fill="#40B5F7"/>
    <path d="M887.551 656.223L877.331 681.337C875.222 686.521 868.384 687.652 864.718 683.423L848.628 664.863C844.962 660.635 847.051 654.026 852.482 652.673L878.791 646.118C884.745 644.635 889.864 650.539 887.551 656.223Z" stroke="#40B5F7" stroke-width="5"/>
    <rect x="869.097" y="472.786" width="47.4863" height="43.9342" rx="5.5" transform="rotate(-50.4502 869.097 472.786)" stroke="#5CD89C" stroke-width="3"/>
    <rect x="625.89" y="415.656" width="33" height="33" rx="3.5" transform="rotate(-18.9044 625.89 415.656)" stroke="#5CD89C" stroke-width="3"/>
    <rect x="763.654" y="730.486" width="49.4863" height="45.9342" rx="12.5" transform="rotate(-26.0834 763.654 730.486)" fill="#5CD89C" stroke="#5CD89C"/>
    <circle cx="711.985" cy="636.059" r="23.5" stroke="#40B5F6" stroke-width="3"/>
    <g clip-path="url(#clip12_21_45)">
    <path d="M779.784 609.561C779.6 609.599 779.41 609.597 779.224 609.554C779.039 609.512 778.861 609.429 778.703 609.312L774.574 606.3C774.413 606.186 774.274 606.039 774.165 605.868C774.056 605.697 773.978 605.504 773.937 605.303C773.897 605.101 773.893 604.894 773.927 604.693C773.961 604.493 774.032 604.303 774.136 604.136L777.046 599.296C777.251 598.956 777.575 598.723 777.946 598.648C778.317 598.573 778.706 598.662 779.027 598.896C779.347 599.13 779.573 599.489 779.655 599.895C779.737 600.301 779.669 600.72 779.464 601.06L777.346 604.719L780.264 606.743C780.585 606.978 780.811 607.337 780.893 607.743C780.975 608.149 780.906 608.568 780.702 608.908C780.6 609.08 780.466 609.227 780.308 609.339C780.15 609.452 779.972 609.527 779.784 609.561V609.561Z" fill="white"/>
    <path d="M793.011 606.886C792.827 606.924 792.637 606.921 792.451 606.879C792.265 606.836 792.088 606.754 791.93 606.637C791.609 606.403 791.383 606.043 791.301 605.637C791.219 605.231 791.288 604.812 791.492 604.472L793.375 601.477L790.113 599.097C789.792 598.863 789.566 598.504 789.484 598.098C789.402 597.692 789.471 597.273 789.675 596.933C789.88 596.593 790.203 596.36 790.575 596.285C790.946 596.209 791.335 596.298 791.655 596.532L796.218 599.86C796.379 599.974 796.518 600.121 796.627 600.293C796.736 600.464 796.814 600.656 796.854 600.858C796.895 601.06 796.899 601.267 796.865 601.467C796.83 601.668 796.759 601.857 796.656 602.025L794.022 606.405C793.895 606.556 793.74 606.677 793.566 606.76C793.392 606.843 793.203 606.885 793.011 606.886V606.886Z" fill="white"/>
    <path d="M784.914 610.5C784.761 610.57 784.595 610.603 784.428 610.599C784.232 610.568 784.043 610.494 783.873 610.381C783.703 610.268 783.555 610.119 783.439 609.942C783.322 609.766 783.24 609.566 783.198 609.356C783.156 609.146 783.154 608.931 783.193 608.723L784.674 596.435C784.698 596.225 784.761 596.024 784.861 595.845C784.96 595.666 785.092 595.511 785.25 595.392C785.408 595.272 785.588 595.19 785.779 595.15C785.97 595.11 786.168 595.113 786.36 595.159C786.556 595.189 786.745 595.263 786.915 595.376C787.086 595.489 787.233 595.639 787.35 595.815C787.466 595.992 787.548 596.191 787.59 596.401C787.632 596.611 787.634 596.827 787.596 597.035L785.965 609.352C785.905 609.633 785.776 609.888 785.591 610.09C785.406 610.292 785.172 610.434 784.914 610.5V610.5Z" fill="white"/>
    <path d="M799.609 623.065L779.993 627.033C778.011 627.434 775.937 626.958 774.225 625.71C772.514 624.462 771.306 622.543 770.868 620.377L765.292 592.811C764.853 590.644 765.22 588.408 766.312 586.592C767.403 584.777 769.13 583.532 771.112 583.131L790.728 579.163C792.71 578.762 794.785 579.238 796.496 580.486C798.207 581.734 799.415 583.653 799.853 585.819L805.43 613.386C805.868 615.552 805.501 617.789 804.409 619.604C803.318 621.419 801.591 622.664 799.609 623.065ZM771.732 586.194C770.493 586.445 769.414 587.223 768.732 588.357C768.049 589.492 767.82 590.89 768.094 592.244L773.671 619.81C773.944 621.164 774.699 622.363 775.769 623.143C776.838 623.923 778.135 624.221 779.374 623.97L798.99 620.002C800.228 619.752 801.307 618.973 801.99 617.839C802.672 616.704 802.901 615.306 802.627 613.952L797.051 586.386C796.777 585.032 796.022 583.833 794.953 583.053C793.883 582.273 792.586 581.975 791.348 582.226L771.732 586.194Z" fill="white"/>
    </g>
    <g clip-path="url(#clip13_21_45)">
    <path d="M892.477 592.86C891.74 592.268 891.208 591.459 890.957 590.548L888.395 581.446C888.314 581.175 888.151 580.935 887.928 580.759C887.706 580.584 887.434 580.481 887.151 580.466L877.785 580.167C876.84 580.13 875.932 579.795 875.189 579.21C874.446 578.626 873.907 577.821 873.65 576.911C873.392 576.002 873.429 575.034 873.755 574.147C874.081 573.259 874.679 572.498 875.464 571.971L883.247 566.673C883.482 566.509 883.661 566.276 883.759 566.007C883.857 565.738 883.87 565.446 883.796 565.169L881.234 556.067C880.971 555.158 881.004 554.188 881.328 553.299C881.652 552.41 882.252 551.647 883.039 551.12C883.826 550.594 884.76 550.332 885.705 550.372C886.651 550.412 887.56 550.753 888.299 551.344L895.728 557.198C895.953 557.376 896.228 557.478 896.515 557.49C896.802 557.501 897.085 557.421 897.323 557.262L905.25 552.05C906.036 551.533 906.964 551.276 907.904 551.316C908.843 551.357 909.746 551.692 910.485 552.274C911.224 552.856 911.76 553.656 912.019 554.56C912.277 555.464 912.245 556.427 911.926 557.311V557.311L908.645 566.185C908.546 566.454 908.534 566.748 908.612 567.024C908.69 567.3 908.854 567.544 909.08 567.721L916.443 573.524C917.19 574.105 917.733 574.909 917.993 575.82C918.253 576.73 918.217 577.699 917.889 578.588C917.561 579.476 916.959 580.237 916.171 580.76C915.382 581.283 914.446 581.541 913.501 581.498L904.053 581.134C903.77 581.125 903.491 581.204 903.255 581.359C903.018 581.515 902.836 581.739 902.731 582.002L899.468 590.889C899.145 591.778 898.547 592.541 897.761 593.067C896.975 593.592 896.041 593.853 895.096 593.81C894.145 593.777 893.228 593.445 892.477 592.86ZM889.862 578.305C890.599 578.893 891.135 579.695 891.395 580.601L893.957 589.703C894.037 589.979 894.201 590.224 894.427 590.402C894.653 590.58 894.929 590.683 895.217 590.696C895.501 590.713 895.783 590.636 896.019 590.477C896.255 590.317 896.432 590.084 896.522 589.814L899.802 580.94C900.124 580.051 900.722 579.288 901.508 578.763C902.295 578.237 903.228 577.977 904.173 578.019L913.654 578.409C913.938 578.424 914.22 578.348 914.457 578.192C914.695 578.035 914.876 577.807 914.975 577.54C915.082 577.272 915.097 576.976 915.018 576.699C914.94 576.421 914.772 576.177 914.541 576.005L907.08 570.124C906.362 569.535 905.845 568.737 905.601 567.841C905.357 566.945 905.397 565.995 905.716 565.123L908.996 556.249C909.098 555.98 909.112 555.685 909.035 555.407C908.958 555.13 908.795 554.884 908.568 554.706C908.342 554.527 908.065 554.426 907.777 554.416C907.489 554.406 907.205 554.488 906.967 554.65L899.086 559.871C898.313 560.39 897.397 560.656 896.466 560.631C895.535 560.605 894.635 560.291 893.892 559.73L886.365 553.798C886.143 553.614 885.867 553.507 885.578 553.496C885.29 553.485 885.006 553.569 884.77 553.735C884.534 553.893 884.355 554.123 884.258 554.391C884.162 554.658 884.153 554.95 884.235 555.222L886.796 564.324C887.058 565.233 887.023 566.201 886.696 567.089C886.369 567.976 885.767 568.736 884.978 569.257L877.09 574.552C876.848 574.703 876.663 574.929 876.563 575.196C876.463 575.463 876.455 575.755 876.538 576.027C876.618 576.304 876.782 576.548 877.008 576.726C877.234 576.905 877.51 577.007 877.798 577.02L887.31 577.302C888.244 577.366 889.135 577.716 889.862 578.305V578.305Z" fill="#DFD46B"/>
    </g>
    <g clip-path="url(#clip14_21_45)">
    <path d="M700.408 732C699.627 731.708 698.919 731.246 698.337 730.648C697.755 730.049 697.314 729.33 697.043 728.54L696.044 725.951C695.903 725.572 695.676 725.232 695.38 724.957C695.084 724.682 694.728 724.481 694.34 724.368L691.615 723.63C690.814 723.41 690.07 723.017 689.436 722.481C688.802 721.944 688.292 721.276 687.942 720.523C687.596 719.767 687.417 718.945 687.417 718.114C687.417 717.282 687.596 716.46 687.941 715.704L689.158 713.066C689.305 712.701 689.369 712.308 689.345 711.915C689.321 711.522 689.209 711.139 689.018 710.795L687.69 708.374C687.279 707.651 687.031 706.847 686.963 706.019C686.894 705.19 687.008 704.357 687.296 703.576C687.583 702.796 688.038 702.089 688.627 701.502C689.217 700.916 689.927 700.466 690.709 700.183L693.298 699.183C693.684 699.037 694.03 698.799 694.306 698.491C694.581 698.184 694.779 697.814 694.883 697.414L695.621 694.688C695.846 693.89 696.241 693.149 696.777 692.515C697.313 691.882 697.978 691.37 698.728 691.016C699.483 690.664 700.305 690.482 701.137 690.482C701.97 690.482 702.792 690.664 703.547 691.015L706.184 692.232C706.548 692.385 706.943 692.452 707.337 692.428C707.731 692.404 708.114 692.289 708.456 692.092L710.877 690.764C711.597 690.343 712.4 690.084 713.231 690.007C714.061 689.929 714.898 690.034 715.683 690.315V690.315C716.465 690.607 717.172 691.069 717.754 691.668C718.336 692.266 718.778 692.986 719.048 693.776V693.776L720.048 696.364C720.199 696.753 720.439 697.099 720.751 697.376C721.062 697.653 721.434 697.852 721.837 697.956L724.563 698.694C725.379 698.909 726.139 699.303 726.786 699.845C727.433 700.388 727.952 701.067 728.306 701.834C728.66 702.601 728.84 703.437 728.833 704.282C728.826 705.126 728.632 705.959 728.266 706.72L727.019 709.258C726.872 709.623 726.808 710.017 726.832 710.41C726.856 710.803 726.968 711.186 727.159 711.53L728.487 713.951C728.898 714.674 729.146 715.477 729.215 716.306C729.283 717.135 729.169 717.968 728.882 718.748C728.594 719.528 728.14 720.236 727.55 720.822C726.96 721.409 726.25 721.859 725.468 722.142L722.879 723.141C722.493 723.288 722.147 723.525 721.872 723.833C721.596 724.141 721.398 724.511 721.295 724.911L720.557 727.636C720.331 728.435 719.937 729.176 719.401 729.809C718.864 730.443 718.199 730.954 717.449 731.309C716.694 731.66 715.872 731.843 715.04 731.843C714.207 731.843 713.385 731.661 712.631 731.31L709.993 730.093C709.627 729.946 709.234 729.882 708.841 729.906C708.448 729.93 708.065 730.042 707.721 730.233L705.3 731.561C704.58 731.982 703.777 732.241 702.947 732.318C702.116 732.396 701.279 732.29 700.494 732.01L700.408 732ZM695.616 721.508C696.395 721.805 697.1 722.269 697.681 722.867C698.262 723.465 698.706 724.182 698.981 724.969L699.981 727.558C700.109 727.912 700.314 728.234 700.58 728.5C700.846 728.767 701.167 728.973 701.521 729.102V729.102C701.886 729.259 702.283 729.326 702.68 729.298C703.076 729.27 703.46 729.149 703.8 728.943L706.221 727.615C707.01 727.15 707.9 726.881 708.814 726.832C709.729 726.782 710.642 726.954 711.477 727.332L714.044 728.5C714.387 728.671 714.765 728.761 715.149 728.764C715.532 728.767 715.912 728.682 716.258 728.517C716.605 728.356 716.913 728.121 717.159 727.828C717.405 727.535 717.584 727.191 717.682 726.821L718.432 724.122C718.685 723.242 719.146 722.435 719.778 721.77C720.409 721.106 721.192 720.605 722.059 720.308L724.647 719.308C725.002 719.18 725.323 718.975 725.59 718.709C725.857 718.443 726.062 718.122 726.192 717.768C726.348 717.403 726.416 717.006 726.388 716.609C726.36 716.213 726.238 715.829 726.033 715.489L724.705 713.068C724.241 712.278 723.973 711.389 723.924 710.475C723.875 709.56 724.045 708.647 724.422 707.812L725.59 705.245C725.75 704.903 725.833 704.53 725.834 704.152C725.834 703.774 725.752 703.401 725.592 703.058C725.432 702.716 725.2 702.413 724.91 702.17C724.62 701.927 724.281 701.751 723.916 701.653L721.217 700.903C720.336 700.652 719.528 700.191 718.864 699.56C718.199 698.928 717.698 698.145 717.403 697.277L716.403 694.688C716.242 694.336 716.005 694.025 715.708 693.777C715.411 693.529 715.063 693.352 714.688 693.256V693.256C714.323 693.1 713.926 693.033 713.529 693.061C713.133 693.088 712.749 693.21 712.409 693.416L709.988 694.744C709.197 695.203 708.308 695.468 707.394 695.517C706.481 695.566 705.568 695.398 704.732 695.027L702.165 693.859C701.822 693.688 701.444 693.597 701.06 693.594C700.677 693.591 700.297 693.676 699.951 693.842C699.604 694.003 699.296 694.238 699.05 694.531C698.804 694.824 698.625 695.168 698.527 695.538L697.777 698.236C697.524 699.117 697.063 699.924 696.431 700.588C695.8 701.252 695.017 701.754 694.15 702.051L691.562 703.051C691.207 703.179 690.886 703.384 690.619 703.65C690.352 703.916 690.147 704.237 690.017 704.591C689.861 704.956 689.793 705.353 689.821 705.749C689.849 706.146 689.971 706.53 690.176 706.87L691.504 709.291C691.968 710.08 692.236 710.97 692.285 711.884C692.334 712.799 692.164 713.711 691.788 714.546L690.619 717.113C690.459 717.455 690.376 717.829 690.375 718.206C690.375 718.584 690.457 718.958 690.617 719.3C690.777 719.643 691.009 719.946 691.299 720.189C691.589 720.432 691.928 720.608 692.293 720.705L694.992 721.456L695.616 721.508Z" fill="white"/>
    <path d="M705.387 718.493C703.443 717.776 701.863 716.317 700.995 714.435C700.127 712.554 700.042 710.405 700.758 708.461C701.475 706.516 702.934 704.937 704.816 704.068C706.697 703.2 708.846 703.115 710.79 703.832V703.832C712.734 704.548 714.314 706.008 715.182 707.889C716.05 709.771 716.136 711.92 715.419 713.864C714.702 715.808 713.243 717.388 711.362 718.256C709.48 719.124 707.331 719.209 705.387 718.493ZM709.71 706.764C708.543 706.334 707.254 706.385 706.125 706.906C704.996 707.427 704.12 708.375 703.69 709.541C703.26 710.708 703.311 711.997 703.832 713.126C704.353 714.255 705.301 715.131 706.467 715.561V715.561C707.634 715.991 708.923 715.939 710.052 715.419C711.181 714.898 712.057 713.95 712.487 712.783C712.917 711.617 712.866 710.327 712.345 709.199C711.824 708.07 710.876 707.194 709.71 706.764Z" fill="white"/>
    </g>
    <circle cx="615.035" cy="728.109" r="25" transform="rotate(24.1942 615.035 728.109)" fill="#DFD46B"/>
    <ellipse cx="788.985" cy="665.559" rx="7" ry="6.5" fill="#DFD46B"/>
    <ellipse cx="739.985" cy="759.559" rx="7" ry="6.5" fill="#DFD46B"/>
    <ellipse cx="694.986" cy="183.559" rx="7" ry="6.5" fill="#DFD46B"/>
    <circle cx="687.5" cy="794.5" r="12.5" fill="#40B5F6"/>
    <circle cx="413.5" cy="278.5" r="12.5" fill="#40B5F6"/>
    <g clip-path="url(#clip15_21_45)">
    <path fill-rule="evenodd" clip-rule="evenodd" d="M653.637 592.263C651.018 588.069 647.214 584.747 642.706 582.715C638.198 580.683 633.189 580.034 628.312 580.849C623.435 581.664 618.909 583.907 615.307 587.294C611.705 590.681 609.188 595.06 608.075 599.878C606.962 604.695 607.302 609.735 609.053 614.359C610.803 618.983 613.886 622.984 617.911 625.857C621.936 628.729 626.722 630.343 631.664 630.495C636.606 630.647 641.483 629.33 645.676 626.711C651.298 623.196 655.294 617.594 656.786 611.135C658.279 604.675 657.146 597.888 653.637 592.263V592.263ZM650.81 594.029C653.08 597.664 654.221 601.89 654.089 606.173C653.958 610.456 652.559 614.604 650.069 618.092C647.58 621.581 644.113 624.252 640.105 625.77C636.097 627.287 631.73 627.582 627.555 626.617C623.379 625.652 619.584 623.471 616.648 620.349C613.713 617.227 611.769 613.305 611.063 609.078C610.356 604.852 610.919 600.51 612.68 596.604C614.441 592.697 617.321 589.4 620.955 587.13C625.83 584.089 631.712 583.107 637.31 584.4C642.908 585.694 647.764 589.157 650.81 594.029V594.029Z" fill="white"/>
    <path fill-rule="evenodd" clip-rule="evenodd" d="M651.34 591.733L648.513 593.498C648.138 593.732 647.872 594.106 647.772 594.537C647.673 594.967 647.748 595.42 647.983 595.795C648.217 596.17 648.59 596.436 649.021 596.536C649.452 596.635 649.904 596.56 650.279 596.326L653.106 594.56C653.481 594.326 653.748 593.952 653.847 593.521C653.947 593.091 653.871 592.638 653.637 592.263C653.403 591.888 653.029 591.622 652.599 591.522C652.168 591.423 651.715 591.498 651.34 591.733V591.733Z" fill="white"/>
    <path fill-rule="evenodd" clip-rule="evenodd" d="M613.525 619.281L616.353 617.515C616.727 617.281 616.994 616.907 617.094 616.477C617.193 616.046 617.117 615.594 616.883 615.219C616.649 614.844 616.276 614.577 615.845 614.478C615.414 614.378 614.962 614.454 614.587 614.688L611.76 616.454C611.385 616.688 611.118 617.061 611.019 617.492C610.919 617.923 610.995 618.375 611.229 618.75C611.463 619.125 611.837 619.392 612.267 619.491C612.698 619.591 613.15 619.515 613.525 619.281Z" fill="white"/>
    <path fill-rule="evenodd" clip-rule="evenodd" d="M646.207 624.414L644.441 621.587C644.207 621.212 643.834 620.946 643.403 620.846C642.972 620.747 642.52 620.822 642.145 621.056C641.77 621.29 641.503 621.664 641.404 622.095C641.304 622.525 641.38 622.978 641.614 623.353L643.38 626.18C643.614 626.555 643.988 626.821 644.418 626.921C644.849 627.021 645.301 626.945 645.676 626.711C646.051 626.477 646.318 626.103 646.417 625.672C646.517 625.242 646.441 624.789 646.207 624.414Z" fill="white"/>
    <path fill-rule="evenodd" clip-rule="evenodd" d="M623.252 587.661L621.486 584.833C621.252 584.459 620.878 584.192 620.448 584.092C620.017 583.993 619.564 584.069 619.189 584.303C618.815 584.537 618.548 584.91 618.448 585.341C618.349 585.772 618.425 586.224 618.659 586.599L620.425 589.426C620.659 589.801 621.032 590.068 621.463 590.167C621.894 590.267 622.346 590.191 622.721 589.957C623.096 589.723 623.362 589.349 623.462 588.919C623.562 588.488 623.486 588.036 623.252 587.661Z" fill="white"/>
    <path fill-rule="evenodd" clip-rule="evenodd" d="M648.098 610.722C648.431 610.675 648.743 610.528 648.991 610.3C649.239 610.073 649.413 609.775 649.489 609.447C649.565 609.119 649.539 608.775 649.416 608.462C649.293 608.148 649.077 607.879 648.798 607.691L634.74 598.196C634.399 597.965 633.984 597.868 633.575 597.925L616.778 600.291C616.444 600.338 616.133 600.485 615.884 600.713C615.636 600.94 615.462 601.238 615.387 601.566C615.311 601.895 615.336 602.238 615.46 602.552C615.583 602.865 615.798 603.134 616.077 603.323L630.134 612.818C630.476 613.05 630.891 613.146 631.3 613.088L648.098 610.722V610.722ZM643.34 608.026L631.462 609.701L621.525 602.986L633.402 601.311L643.34 608.026Z" fill="white"/>
    <path d="M630.676 606.604C631.282 607.575 632.56 607.87 633.53 607.264C634.501 606.658 634.796 605.38 634.19 604.409C633.584 603.439 632.306 603.144 631.335 603.75C630.365 604.356 630.07 605.634 630.676 606.604Z" fill="white"/>
    </g>
    <g clip-path="url(#clip16_21_45)">
    <path d="M693.462 553.919C692.725 553.327 692.193 552.518 691.942 551.607L689.38 542.505C689.299 542.234 689.136 541.994 688.914 541.818C688.691 541.643 688.42 541.541 688.137 541.525L678.771 541.226C677.826 541.189 676.917 540.854 676.174 540.27C675.432 539.685 674.893 538.88 674.635 537.971C674.378 537.061 674.414 536.093 674.74 535.206C675.066 534.318 675.665 533.557 676.45 533.03L684.233 527.732C684.468 527.568 684.646 527.336 684.744 527.066C684.842 526.797 684.856 526.505 684.782 526.228L682.22 517.127C681.956 516.217 681.989 515.248 682.314 514.358C682.638 513.469 683.237 512.706 684.024 512.18C684.811 511.653 685.745 511.391 686.691 511.432C687.637 511.472 688.545 511.812 689.285 512.403L696.714 518.258C696.938 518.436 697.214 518.538 697.501 518.549C697.787 518.56 698.07 518.48 698.308 518.321L706.236 513.109C707.021 512.592 707.95 512.336 708.889 512.376C709.829 512.416 710.732 512.751 711.471 513.333C712.209 513.915 712.746 514.715 713.004 515.619C713.263 516.523 713.23 517.486 712.911 518.371V518.371L709.631 527.245C709.531 527.514 709.52 527.807 709.598 528.083C709.676 528.359 709.84 528.603 710.065 528.78L717.428 534.584C718.176 535.165 718.719 535.969 718.979 536.879C719.239 537.789 719.202 538.759 718.875 539.647C718.547 540.535 717.945 541.296 717.156 541.819C716.367 542.342 715.432 542.601 714.486 542.557L705.038 542.193C704.755 542.184 704.477 542.263 704.24 542.418C704.004 542.574 703.821 542.798 703.717 543.062L700.453 551.948C700.131 552.838 699.533 553.601 698.747 554.126C697.96 554.652 697.027 554.912 696.082 554.87C695.13 554.836 694.214 554.504 693.462 553.919ZM690.848 539.365C691.585 539.952 692.12 540.755 692.381 541.66L694.942 550.762C695.022 551.038 695.187 551.283 695.413 551.461C695.639 551.639 695.915 551.742 696.202 551.755C696.487 551.772 696.769 551.695 697.005 551.536C697.241 551.377 697.417 551.144 697.507 550.873L700.787 541.999C701.11 541.11 701.708 540.347 702.494 539.822C703.28 539.296 704.214 539.036 705.159 539.078L714.64 539.468C714.924 539.483 715.205 539.407 715.443 539.251C715.681 539.095 715.862 538.866 715.961 538.6C716.067 538.331 716.082 538.036 716.004 537.758C715.926 537.48 715.758 537.236 715.527 537.064L708.065 531.183C707.348 530.594 706.831 529.796 706.587 528.9C706.342 528.004 706.382 527.055 706.702 526.182L709.982 517.309C710.084 517.039 710.098 516.744 710.021 516.467C709.944 516.189 709.78 515.943 709.554 515.765C709.328 515.586 709.05 515.485 708.762 515.475C708.475 515.465 708.191 515.547 707.953 515.709L700.071 520.93C699.298 521.45 698.383 521.715 697.452 521.69C696.521 521.665 695.621 521.35 694.877 520.789L687.351 514.857C687.129 514.673 686.852 514.567 686.564 514.555C686.276 514.544 685.992 514.628 685.756 514.794C685.52 514.952 685.34 515.182 685.244 515.45C685.147 515.717 685.139 516.009 685.22 516.282L687.782 525.383C688.044 526.292 688.009 527.26 687.682 528.148C687.355 529.035 686.752 529.795 685.963 530.316L678.076 535.612C677.834 535.762 677.649 535.988 677.549 536.255C677.449 536.522 677.44 536.814 677.524 537.086C677.603 537.363 677.768 537.608 677.994 537.786C678.22 537.964 678.496 538.067 678.783 538.079L688.296 538.362C689.23 538.425 690.121 538.775 690.848 539.365V539.365Z" fill="#DFD46B"/>
    </g>
    <rect x="765.083" y="526.181" width="32" height="32" rx="3.5" transform="rotate(-36.4762 765.083 526.181)" stroke="#5CD89C" stroke-width="3"/>
    <path d="M180.912 537.041L201.015 522.178C202.569 521.029 204.76 521.358 205.91 522.912L220.772 543.015C221.921 544.569 221.593 546.761 220.038 547.91L199.936 562.772C198.381 563.921 196.19 563.593 195.041 562.038L180.178 541.936C179.029 540.381 179.358 538.19 180.912 537.041Z" fill="#5CD89C" stroke="#5CD89C" stroke-width="3"/>
    <defs>
    <clipPath id="clip0_21_45">
    <rect width="45.7447" height="50" fill="white" transform="translate(702.862 317.845) rotate(21.5892)"/>
    </clipPath>
    <clipPath id="clip1_21_45">
    <rect width="50" height="50" fill="white" transform="translate(790.352 348) rotate(71.2686)"/>
    </clipPath>
    <clipPath id="clip2_21_45">
    <rect width="50" height="50" fill="white" transform="translate(542.067 395) rotate(53.2578)"/>
    </clipPath>
    <clipPath id="clip3_21_45">
    <rect width="50" height="50" fill="white" transform="translate(594.897 235.906) rotate(91.0377)"/>
    </clipPath>
    <clipPath id="clip4_21_45">
    <rect width="50" height="50" fill="white" transform="translate(697.16 209.097) rotate(71.2686)"/>
    </clipPath>
    <clipPath id="clip5_21_45">
    <rect width="50" height="50" fill="white" transform="translate(470.194 196.519) rotate(71.2686)"/>
    </clipPath>
    <clipPath id="clip6_21_45">
    <rect width="45.7447" height="50" fill="white" transform="translate(418.807 697) rotate(84.9682)"/>
    </clipPath>
    <clipPath id="clip7_21_45">
    <rect width="50" height="50" fill="white" transform="translate(454.709 813.137) rotate(134.648)"/>
    </clipPath>
    <clipPath id="clip8_21_45">
    <rect width="50" height="50" fill="white" transform="translate(267.11 645.417) rotate(116.637)"/>
    </clipPath>
    <clipPath id="clip9_21_45">
    <rect width="50" height="50" fill="white" transform="translate(412.689 629.098) rotate(154.417)"/>
    </clipPath>
    <clipPath id="clip10_21_45">
    <rect width="50" height="50" fill="white" transform="translate(500.709 641.137) rotate(134.648)"/>
    </clipPath>
    <clipPath id="clip11_21_45">
    <rect width="50" height="50" fill="white" transform="translate(402.709 486.137) rotate(134.648)"/>
    </clipPath>
    <clipPath id="clip12_21_45">
    <rect width="45.7447" height="50" fill="white" transform="translate(757.985 583.13) rotate(-11.4364)"/>
    </clipPath>
    <clipPath id="clip13_21_45">
    <rect width="50" height="50" fill="white" transform="translate(892.95 534) rotate(38.243)"/>
    </clipPath>
    <clipPath id="clip14_21_45">
    <rect width="50" height="50" fill="white" transform="translate(693.277 679.059) rotate(20.2322)"/>
    </clipPath>
    <clipPath id="clip15_21_45">
    <rect width="50" height="50" fill="white" transform="translate(640.393 571.059) rotate(58.0121)"/>
    </clipPath>
    <clipPath id="clip16_21_45">
    <rect width="50" height="50" fill="white" transform="translate(693.935 495.059) rotate(38.243)"/>
    </clipPath>
    </defs>
</svg>
